<?xml version="1.0" standalone="no"?>
<!DOCTYPE svg PUBLIC "-//W3C//DTD SVG 20010904//EN"
 "http://www.w3.org/TR/2001/REC-SVG-20010904/DTD/svg10.dtd">
<svg version="1.0" xmlns="http://www.w3.org/2000/svg"
 width="1280.000000pt" height="1280.000000pt" viewBox="0 0 1280.000000 1280.000000"
 preserveAspectRatio="xMidYMid meet">
<metadata>
Created by potrace 1.11, written by Peter Selinger 2001-2013
</metadata>
<g transform="translate(0.000000,1280.000000) scale(0.100000,-0.100000)"
fill="#000000" stroke="none">
<path d="M6100 12794 c-333 -22 -491 -39 -710 -74 -673 -109 -1272 -303 -1881
-611 -1224 -619 -2218 -1618 -2835 -2851 -360 -720 -570 -1461 -651 -2303 -24
-252 -24 -858 0 -1110 80 -830 282 -1552 634 -2267 953 -1936 2819 -3266 4948
-3527 306 -38 447 -46 795 -46 348 0 489 8 795 46 1159 142 2254 602 3180
1334 373 295 767 691 1059 1064 771 984 1220 2120 1343 3396 24 252 24 858 0
1110 -81 834 -282 1553 -638 2276 -724 1469 -1988 2607 -3525 3174 -529 196
-1066 316 -1649 371 -150 14 -744 26 -865 18z m765 -964 c1144 -102 2186 -537
3065 -1278 165 -140 499 -475 634 -637 328 -393 598 -819 791 -1245 848 -1870
591 -4030 -671 -5636 -880 -1121 -2179 -1859 -3584 -2038 -329 -42 -858 -55
-1150 -28 -1114 104 -2091 493 -2944 1170 -1467 1166 -2230 3006 -2020 4877
206 1841 1349 3462 3019 4280 612 300 1290 486 1945 535 80 5 165 12 190 14
83 7 603 -3 725 -14z"/>
<path d="M4400 7400 l0 -670 2000 0 2000 0 0 670 0 670 -2000 0 -2000 0 0
-670z"/>
<path d="M4400 5400 l0 -670 2000 0 2000 0 0 670 0 670 -2000 0 -2000 0 0
-670z"/>
</g>
</svg>
